<svg xmlns="http://www.w3.org/2000/svg" viewBox="0 0 201.09 210.9"><defs><style>.cls-1{fill:#ffdcd2;}.cls-2{fill:#ffb9a1;}.cls-3{fill:#f97d8f;}.cls-4{fill:#c66a2c;}.cls-5{fill:#ffe2cc;}.cls-6{fill:#ff8dc1;}.cls-7{fill:#dd507b;}.cls-8{fill:#440829;}.cls-9{fill:#a54921;}.cls-10{fill:#ea5eb8;}</style></defs><g id="Layer_2" data-name="Layer 2"><g id="Objects"><path class="cls-1" d="M0,100.55A100.55,100.55,0,1,1,100.55,201.09,100.55,100.55,0,0,1,0,100.55"/><path class="cls-2" d="M101.19,103.48a6.24,6.24,0,0,0,4.9-2.85,15.59,15.59,0,0,1-9.28.65A5.61,5.61,0,0,0,101.19,103.48Z"/><path class="cls-3" d="M96.84,120.91a13.92,13.92,0,0,0-2.37,1.21c1.4,2.52,3.31,4.47,6,4.68,2.58-.06,4.11-2,5.27-4.16-1.16-.72-2.38-1.39-3.59-2A7.82,7.82,0,0,0,96.84,120.91Z"/><path class="cls-4" d="M82.33,65.22c-2.6-.44-6.16,3.59-7.7,5.41,2.59-1.19,5.54-2,7.87-3.64C83.21,66.43,83.32,65.53,82.33,65.22Z"/><path class="cls-4" d="M158.24,130.09c-1.2-1.16-1.81-2.81-2.94-4a7.43,7.43,0,0,0-.37-4.64c-.55-.47-1.15.15-1.31.68-.93,6.62-3.34,13.36-8.39,18-.49.45-1,.91-1.53,1.36a.08.08,0,0,0,0,0c.95-2.67,1.91-5.91.63-8.59-.64-.41-.81,1-.95,1.42-.85,6-3.71,11.8-8.9,15.14-.56.41-1.38,1-2,1.38l0,0a45.7,45.7,0,0,0-5-2.95c-.84-.47-1.68-.93-2.49-1.45-1.7-2-3.26-4.32-5.66-5.49a4.75,4.75,0,0,0-2.36-.38,29.13,29.13,0,0,1,.86-6.34c14.58-7.08,19.36-21.75,23.3-39.65.21-1.71,4-18,1.21-16.87a4.13,4.13,0,0,0-.86,2.23,46.11,46.11,0,0,1-3.68-6.21c-2.33-5-3.05-10.59-3.39-16.09-.11-.58-.18-2.72-1.18-1.91a9.06,9.06,0,0,0-.87,5.08l-.46.05c-6.15.31-12.2.38-18.26-1.06-5.83-1.52-11.25-4.36-16.61-7.09-.42-.2-1.08-.56-1.49-.17-.64,2,4.77,4,6.22,5,1.5.81,3,1.55,4.6,2.22a21.37,21.37,0,0,1-8.22.76A25.7,25.7,0,0,1,76.36,44.74c-.78-1.19-1.09-2.87-2.26-3.71-1-.13-.86,1-.52,2.17.75,8.08.26,15.16-4.88,21.49a41.51,41.51,0,0,0,.39-13.75c.12-.37-.44-.53-.47-.15s-.19.48-.22.73c-.85,3.64-.79,7.38-1.55,11a35.77,35.77,0,0,1-5.06,13.1,78.49,78.49,0,0,1-4.74,6.72c-.64.8-1.84,2.32-.23,2.82a1,1,0,0,0,.56-.06c.2,1.19.57,2.48.63,3,.58,2.82,1.19,5.65,1.91,8.43,2.48,8.45,4.9,17.07,9.14,24.83a31.7,31.7,0,0,0,14.11,13,1.17,1.17,0,0,0,.06.2,15.71,15.71,0,0,1,1,5.23c-4,.3-6.74,4-8.79,7.1A33,33,0,0,0,71,148.79c-.92.48-1.81,1-2.68,1.53a1.39,1.39,0,0,0-.65-.49,30,30,0,0,1-7.58-7.3c-1-1.13-1.71-3.28-3.13-4.05a1.21,1.21,0,0,0-1.43,1.36,7.28,7.28,0,0,1-.86,4,.51.51,0,0,1-.49-.08A16,16,0,0,1,51.65,141a20.41,20.41,0,0,1-4.13-10.4A60.66,60.66,0,0,1,47.4,123c.08-.83,0-3.69-1.11-1.79a27.25,27.25,0,0,0-.54,12.25,6.43,6.43,0,0,1-.92-.81c-3-3.23-2.3-8.08-1.08-12,2.65-6.86,6-13.63,5.15-21.23-1.15-17.11-3.21-34.95,3.31-51.31C55,41.4,58.92,34.39,65.58,30.75c1.39-.82,3-1.1,4.38-1.94a1,1,0,0,0,.42-.49,23,23,0,0,1,1.8-1.93A42.2,42.2,0,0,1,95.5,16.27c17.09-1.63,34.5,6.49,45.39,19.63,9.59,11.56,11.94,27.38,12,42,.37,9.75-2.08,19.78.43,29.41C155.26,114.85,159.27,122.05,158.24,130.09Z"/><path class="cls-5" d="M90.82,163.38c2.47,2.71,6.44,8.39,10.28,8.5,6.71-1.7,12.08-15,15.43-21.61a3.58,3.58,0,0,1-.09-.45,32.85,32.85,0,0,1-1.6-9.2c0-.55.07-1.91.21-3.39-4.7,5-10.78,8.42-17.82,6.91a21.8,21.8,0,0,1-10.9-5.89c.06.4.11.75.15,1,.5,3.81-.64,7.43-1.94,10.95C85.15,155.05,87.74,159.6,90.82,163.38Z"/><path class="cls-2" d="M104.08,138.08a4.52,4.52,0,0,1-.64,0c-.47,0-1,.06-1.42.07a2.32,2.32,0,0,1-1.39.2,41.06,41.06,0,0,1-14.1-2.49c1.84,1.63,3.43,3.54,5.4,5a13.29,13.29,0,0,0,15.95.1h0a47.6,47.6,0,0,0,6.7-5.45A48.54,48.54,0,0,1,104.08,138.08Z"/><path class="cls-4" d="M122.07,68.67a56.56,56.56,0,0,1,5.37,2.61c-1.5-2.31-3.32-4.89-6-5.92-1.89-.69-5.14-.41-2.57,2A25.17,25.17,0,0,0,122.07,68.67Z"/><path class="cls-5" d="M139.31,91.8c.59-3,1.16-6.09,1.65-9.16a34.62,34.62,0,0,1-8.23-18c-.07-.61-.15-1.25-.23-1.89l-.66,0a54.49,54.49,0,0,1-10.29.42A40.74,40.74,0,0,1,110,61.07c-.81.32-1.94.39-2.59.66a24.84,24.84,0,0,1-9.06,1C89,62,80.29,56.87,75.85,48.69c.39,6.52-1.54,13.22-6.21,17.89-.53.37-1.19,1.3-1.89,1.79a33.89,33.89,0,0,1-5.19,10.35c-1.12,1.63-2.32,3.2-3.55,4.76,0,.12.08.24.11.35,1.38,5,2.54,10.43,4,15.4,2.41,7.34,4.47,15,8.4,21.66,5.87,9.87,17.19,14.82,28.35,15h1.25a42.58,42.58,0,0,0,5-.56c5.92-1.29,11.81-3.14,16.49-7C133.48,119.46,136.22,104.81,139.31,91.8ZM117.05,63.49c4.44-1.86,9.56,2.85,11.29,6.67h0a8.1,8.1,0,0,1,.86,2.06c0,.46-.36,1-.83,1a2.23,2.23,0,0,1-.73-.17c-3-1.49-6.23-2.58-9.35-3.87C116.28,68.21,114.81,65,117.05,63.49ZM95.25,98.34c1.66.44,3.26,1.7,5,1.59a16.64,16.64,0,0,0,4.7-.73c.85-.14,2.38-1,2.78.17a.94.94,0,0,1-.24.71,14.44,14.44,0,0,1-2.44,3.15,7.42,7.42,0,0,1-6,.93,7.11,7.11,0,0,1-3.6-2.77c-.25-.35-.66-.75-.53-1.22C94.33,99.67,94.28,98.41,95.25,98.34ZM71.69,71.68A14.7,14.7,0,0,1,74,68c2.36-2.78,6.35-6.59,10-3.68,3.73,3.61-3.33,5.89-6,6.87-1.92.61-3.7,1.46-5.6,2a.59.59,0,0,1-.93-.14C71.29,72.6,71.53,72.09,71.69,71.68ZM86.47,89.36a1,1,0,0,1-1.08.48c-4.23-2.59-7.57-4.43-12.08-1-1.41.8-2.24-.94-1.06-1.86,2.43-2.52,6.21-2.37,9.23-1.09C82.67,86.47,87.35,87.62,86.47,89.36ZM110.71,116c-1.62,5.28-4,13.69-10.93,13-5.37-.74-7.61-6.41-9.24-10.91a32.47,32.47,0,0,1-1.29-4.66c-.11-.46-.2-.92-.29-1.37a.91.91,0,0,1,.74-1,1.06,1.06,0,0,1,.45,0,2.35,2.35,0,0,1,1,.08,28.74,28.74,0,0,0,16.17-1.47C110.86,108.68,111.5,113.49,110.71,116Zm3.38-26.09c-1-1.42,1.22-2.12,2.12-2.76,2.08-1.19,4.29-2.56,6.76-2.53,1.64-.36,8.43,2.13,6.39,4.28-.6.52-1.43.16-2-.25a7.54,7.54,0,0,0-3-1.54c-2.7-.57-5.07.73-7.28,2.06C116.15,89.57,115,90.94,114.09,89.89Z"/><path class="cls-6" d="M158,197.76c0,.28,0,.64,0,1h-.07c-4.28,1.48-8.61,2.9-13,4.09-2.6.69-5.23,1.32-7.88,1.82l-2.34.44c-22.74,4.15-46.58,5.14-69.31.41l-1.62-.34c.17-3.29-2.16-12.42-2.39-13.22s-.53-1.72-.79-2.58c0,0,0,0,0,0-1.53-5-3.17-10.09-6.55-14.05a1.55,1.55,0,0,1-.12-.22c-.26-.37-.63.05-.36.38.1.27.2.54.31.8,1.31,3.37,3.08,6.59,4.06,10.09,2,6,2.8,12.34,4.34,18.47-2.49-.57-5-1.22-7.41-2-1.43-.41-2.85-.86-4.26-1.33a41.39,41.39,0,0,1-8.93-4.14c0-.16.09-.33.13-.48a166.42,166.42,0,0,1,6.64-18.46,81.67,81.67,0,0,1,16.8-23.26,31.2,31.2,0,0,1,11.56-6.7c1.36-1.11,2-2.94,3.4-4.08a15.66,15.66,0,0,1,4.13-2.77c0,.56,0,1.12-.06,1.67a10.63,10.63,0,0,1-.28,1.54c-1.31-.88-2,2-1.93,3.06,0,7.28,4,13.8,8.73,19.08,2.66,2.84,5.4,6.45,9.4,7.29,6.71.19,11.83-10.17,14.68-15.3,2-4.33,5.43-8.79,4.18-13.8a.68.68,0,0,0-.79-.43.69.69,0,0,0-.52.62v0a20.46,20.46,0,0,1-.68-2.74l0-.29a5.64,5.64,0,0,1,2,.83c1.78,1.29,2.68,3.43,4.35,4.82a56.4,56.4,0,0,1,11.5,7.62,81.14,81.14,0,0,1,13.3,16.72,16,16,0,0,0-1.26,2.47h0c-1,2.3-1.86,4.69-2.79,7a103.17,103.17,0,0,0-4.93,16.31l-.51,2.46a.25.25,0,0,0,.19.3.26.26,0,0,0,.3-.19c.34-1.61.7-3.2,1-4.81a78.62,78.62,0,0,1,3.64-11.78,53,53,0,0,1,4.3-8.51h0l.06-.11c.26-.49.63-1,1-1.48A84.13,84.13,0,0,1,156,189.31c.73,2.56,1.81,5.41,2,8.17A2.62,2.62,0,0,1,158,197.76Z"/><path class="cls-7" d="M108.23,111.64c-1.64.38-3.19,1.09-4.84,1.47a22.07,22.07,0,0,1-12.14-.4,45.91,45.91,0,0,0,2.51,8,5.83,5.83,0,0,1,2-1.47c2.78-1.27,6.06-.36,8.77.71a5.43,5.43,0,0,1,1.9,1.32c.22-.47.42-.92.63-1.35.93-2.1,2-4.42,1.92-6.73C108.89,112.64,108.82,111.85,108.23,111.64Z"/><path class="cls-8" d="M148.7,168.84C144.61,162.61,140,156.58,134,152a20.66,20.66,0,0,0,8.89-8.71.52.52,0,0,0,.32-.07,21,21,0,0,0,8-7.08,33,33,0,0,0,3.58-8.12c.18.25.34.47.44.63.87,1.09,1.53,2.61,2.88,3.16,2.72.3,1.75-5.18,2-7.1,0-3.67-1.23-7.19-2.4-10.63a47.73,47.73,0,0,1-2.93-22.9c1.08-18.46.8-38.69-10.21-54.4-12.31-16.63-34.49-26.6-55-21.9a44.66,44.66,0,0,0-16.68,8C71.53,24,69.54,25.4,69,27.18a8.25,8.25,0,0,0-1.4.27C59.65,30,54.62,37.38,51.25,44.57c-6.53,14.06-6.52,30.05-5.41,45.22.37,5.53,1.15,11,.41,16.51-1,6.42-5.13,11.93-5.77,18.44-.61,4.27,1,10,5.81,10.84,2,5.37,9.15,15.89,10.71,6.24,2.28,3.78,5.69,7.63,9.76,9.56a45.61,45.61,0,0,0-9.49,9.23,78.48,78.48,0,0,0-14.7,26.58c-.81,2.5-1.59,5-2.36,7.51-.15,1.16-1.54,3.2-.11,3.9,1.61,2.11,7.09,4.14,9,4.87a138.52,138.52,0,0,0,36.67,7.12c22.18,1.16,44.72-.84,66-7.28a56,56,0,0,0,7-2.51,1,1,0,0,0,.43-.91c.46-.15.76-.74.91-1.47,1.13-2.71-2.81-12-3.34-13.83A75.84,75.84,0,0,0,148.7,168.84ZM60.11,142.53c-1-1.12-1.7-3.29-3.12-4a1.18,1.18,0,0,0-1.42,1.34,7.48,7.48,0,0,1-.87,4,.54.54,0,0,1-.49-.08A16.09,16.09,0,0,1,51.65,141a20.41,20.41,0,0,1-4.13-10.4A60.66,60.66,0,0,1,47.4,123c.08-.82,0-3.69-1.11-1.79a27.25,27.25,0,0,0-.55,12.25,6.43,6.43,0,0,1-.92-.81c-3-3.23-2.29-8.08-1.07-12,2.65-6.86,6-13.63,5.15-21.23-1.15-17.11-3.22-34.94,3.3-51.31C55,41.4,58.92,34.39,65.58,30.76c1.39-.83,3-1.11,4.39-2a1,1,0,0,0,.41-.48,23,23,0,0,1,1.8-1.93A42.1,42.1,0,0,1,95.49,16.27C112.6,14.64,130,22.76,140.9,35.9c9.57,11.56,11.93,27.38,11.95,42,.38,9.75-2.08,19.78.44,29.41,2,7.54,6,14.74,5,22.78-1.2-1.16-1.82-2.81-2.94-4a7.39,7.39,0,0,0-.37-4.65c-.54-.47-1.15.15-1.31.68-.93,6.63-3.33,13.35-8.39,18-.49.45-1,.91-1.53,1.37l0-.05c.95-2.67,1.91-5.91.62-8.6-.64-.4-.8,1-1,1.43-.85,6-3.7,11.8-8.89,15.14-.56.41-1.38,1-2,1.37l0,0c-2.36-1.7-5-2.85-7.48-4.39-1.7-2-3.26-4.32-5.66-5.5a4.75,4.75,0,0,0-2.36-.38,29.13,29.13,0,0,1,.86-6.34c14.58-7.08,19.36-21.75,23.3-39.66.21-1.7,4-18,1.2-16.86a4.2,4.2,0,0,0-.85,2.24,47.39,47.39,0,0,1-3.68-6.21c-2.34-5.05-3.05-10.61-3.39-16.1-.11-.58-.18-2.71-1.18-1.91a9.14,9.14,0,0,0-.87,5.08l-.46.05c-6.15.32-12.19.38-18.26-1.06-5.83-1.52-11.25-4.36-16.6-7.09-.43-.2-1.08-.56-1.5-.16-.65,2,4.77,4,6.23,5q2.25,1.21,4.59,2.22a21.37,21.37,0,0,1-8.22.76,25.72,25.72,0,0,1-21.74-15.7c-.77-1.19-1.07-2.86-2.25-3.69-1-.14-.86,1-.52,2.16.76,8.09.26,15.16-4.89,21.48a41.45,41.45,0,0,0,.41-13.74c.11-.37-.45-.52-.48-.15s-.19.48-.22.73c-.85,3.64-.79,7.38-1.55,11a35.41,35.41,0,0,1-5.06,13.09,75.61,75.61,0,0,1-4.74,6.73c-.64.8-1.83,2.32-.23,2.82a1,1,0,0,0,.56-.06c.2,1.2.57,2.48.62,3,.59,2.83,1.19,5.65,1.92,8.44,2.48,8.44,4.9,17.07,9.14,24.82a31.76,31.76,0,0,0,14.11,13,.68.68,0,0,0,.07.2,15.69,15.69,0,0,1,1,5.23c-4,.3-6.74,4-8.77,7.1a32.17,32.17,0,0,0-7.16,3.38,1.4,1.4,0,0,0-.64-.5A29.85,29.85,0,0,1,60.11,142.53Zm26.37-3.31c0-.22-.09-.57-.15-1a21.8,21.8,0,0,0,10.9,5.89c7,1.51,13.12-2,17.82-6.91-.14,1.48-.17,2.84-.21,3.39a32.85,32.85,0,0,0,1.6,9.2,3.58,3.58,0,0,0,.09.45c-3.35,6.65-8.72,19.91-15.43,21.61-3.84-.11-7.81-5.79-10.28-8.5-3.08-3.78-5.67-8.33-6.28-13.21C85.84,146.65,87,143,86.48,139.22Zm21.4,1.75a13.29,13.29,0,0,1-15.95-.1c-2-1.49-3.56-3.4-5.4-5a41.06,41.06,0,0,0,14.1,2.49,2.32,2.32,0,0,0,1.39-.2c.47,0,1,0,1.42-.07a4.52,4.52,0,0,0,.64,0,48.54,48.54,0,0,0,10.49-2.56,47.6,47.6,0,0,1-6.7,5.45Zm-1.82-5.64a42.58,42.58,0,0,1-5,.56H99.86c-11.16-.18-22.48-5.13-28.35-15-3.93-6.66-6-14.32-8.4-21.66-1.45-5-2.61-10.35-4-15.4,0-.11-.07-.23-.11-.35,1.23-1.56,2.43-3.13,3.55-4.76a33.89,33.89,0,0,0,5.19-10.35c.7-.49,1.36-1.42,1.89-1.79,4.67-4.67,6.6-11.37,6.21-17.89C80.29,56.87,89,62,98.38,62.76a24.84,24.84,0,0,0,9.06-1c.65-.27,1.78-.34,2.59-.66a40.74,40.74,0,0,0,11.52,2.13,54.49,54.49,0,0,0,10.29-.42l.66,0c.08.64.16,1.28.23,1.89a34.62,34.62,0,0,0,8.23,18c-.49,3.07-1.06,6.11-1.65,9.16-3.09,13-5.83,27.66-16.76,36.55C117.87,132.19,112,134,106.06,135.33ZM158,198.74a.22.22,0,0,0-.08,0A150.3,150.3,0,0,1,137,204.65c-24,4.62-49.28,5.8-73.27.5.17-3.28-2.17-12.41-2.39-13.22-1.81-5.73-3.38-12-7.35-16.65a.94.94,0,0,1-.12-.22c-.26-.36-.63.05-.36.37,1.33,3.66,3.31,7.11,4.37,10.9,2,6,2.79,12.34,4.34,18.47-3.93-.91-7.83-2-11.67-3.28a41.1,41.1,0,0,1-8.92-4.14q.06-.25.12-.48a169.22,169.22,0,0,1,6.64-18.46,82.05,82.05,0,0,1,16.8-23.27,31.29,31.29,0,0,1,11.56-6.68c1.35-1.12,2-3,3.4-4.09a16.06,16.06,0,0,1,4.12-2.78q0,.84-.06,1.68a9.09,9.09,0,0,1-.27,1.53c-1.3-.87-2,2-1.93,3.07,0,7.28,4,13.8,8.72,19.08,2.66,2.84,5.42,6.46,9.4,7.29,6.72.19,11.83-10.17,14.69-15.31,2-4.32,5.43-8.77,4.18-13.8a.68.68,0,0,0-1.31.2v0a20,20,0,0,1-.68-2.73c0-.1,0-.19,0-.29a5.85,5.85,0,0,1,2,.83c1.78,1.29,2.69,3.43,4.34,4.81a56.66,56.66,0,0,1,11.51,7.63,80.76,80.76,0,0,1,13.29,16.72,19,19,0,0,0-1.25,2.46c-1,2.32-1.87,4.71-2.8,7.06a103.17,103.17,0,0,0-4.93,16.31l-.51,2.46a.25.25,0,0,0,.19.3.25.25,0,0,0,.3-.19c.34-1.6.69-3.2,1-4.81a78.7,78.7,0,0,1,3.66-11.78,52.8,52.8,0,0,1,4.36-8.62,12.83,12.83,0,0,1,1-1.48A83.64,83.64,0,0,1,156,189.3c.73,2.57,1.81,5.42,2,8.18a2.53,2.53,0,0,1,0,.28C158,198,158,198.4,158,198.74Z"/><path class="cls-8" d="M81.48,85.88c-3-1.28-6.8-1.43-9.23,1.09-1.18.92-.35,2.66,1.06,1.86,4.51-3.42,7.85-1.58,12.08,1a1,1,0,0,0,1.08-.48C87.35,87.62,82.67,86.47,81.48,85.88Z"/><path class="cls-8" d="M124.34,87.09a7.54,7.54,0,0,1,3,1.54c.54.41,1.37.77,2,.25,2-2.15-4.75-4.64-6.39-4.28-2.47,0-4.68,1.34-6.76,2.53-.9.64-3.07,1.34-2.12,2.76,1,1,2.06-.32,3-.74C119.27,87.82,121.64,86.52,124.34,87.09Z"/><path class="cls-8" d="M72.45,73.17c1.9-.5,3.68-1.35,5.6-2,2.62-1,9.68-3.26,6-6.87-3.65-2.91-7.64.9-10,3.68a14.7,14.7,0,0,0-2.31,3.66c-.16.41-.4.92-.17,1.35A.59.59,0,0,0,72.45,73.17Zm9.88-8c1,.31.88,1.21.17,1.77-2.33,1.63-5.28,2.45-7.87,3.64C76.17,68.81,79.73,64.78,82.33,65.22Z"/><path class="cls-8" d="M118.29,69.18c3.12,1.29,6.33,2.38,9.35,3.87a2.23,2.23,0,0,0,.73.17c.47,0,.87-.54.83-1a8.1,8.1,0,0,0-.86-2.06h0c-1.73-3.82-6.85-8.53-11.29-6.67C114.81,65,116.28,68.21,118.29,69.18Zm3.19-3.82c2.64,1,4.46,3.61,6,5.92a56.56,56.56,0,0,0-5.37-2.61,25.17,25.17,0,0,1-3.16-1.34C116.34,65,119.59,64.67,121.48,65.36Z"/><path class="cls-8" d="M95.49,101.39a7.11,7.11,0,0,0,3.6,2.77,7.42,7.42,0,0,0,6-.93,14.44,14.44,0,0,0,2.44-3.15.94.94,0,0,0,.24-.71c-.4-1.18-1.93-.31-2.78-.17a16.64,16.64,0,0,1-4.7.73c-1.79.11-3.39-1.15-5-1.59-1,.07-.92,1.33-.29,1.83C94.83,100.64,95.24,101,95.49,101.39Zm10.6-.76a6.24,6.24,0,0,1-4.9,2.85h0a5.61,5.61,0,0,1-4.38-2.2A15.59,15.59,0,0,0,106.09,100.63Z"/><path class="cls-8" d="M101.23,103.48h0Z"/><path class="cls-8" d="M107.28,109.64a28.74,28.74,0,0,1-16.17,1.47,2.35,2.35,0,0,0-1-.08,1.06,1.06,0,0,0-.45,0,.91.91,0,0,0-.74,1c.09.45.18.91.29,1.37a32.47,32.47,0,0,0,1.29,4.66c1.63,4.5,3.87,10.17,9.24,10.91,7,.71,9.31-7.7,10.93-13C111.5,113.49,110.86,108.68,107.28,109.64Zm-6.81,17.16c-2.69-.21-4.6-2.16-6-4.68a13.92,13.92,0,0,1,2.37-1.21,7.82,7.82,0,0,1,5.31-.31c1.21.65,2.43,1.32,3.59,2C104.58,124.79,103.05,126.74,100.47,126.8Zm6.59-6.89c-.21.43-.41.88-.63,1.35a5.43,5.43,0,0,0-1.9-1.32c-2.71-1.07-6-2-8.77-.71a5.83,5.83,0,0,0-2,1.47,45.91,45.91,0,0,1-2.51-8,22.07,22.07,0,0,0,12.14.4c1.65-.38,3.2-1.09,4.84-1.47.59.21.66,1,.75,1.54C109,115.49,108,117.81,107.06,119.91Z"/><path class="cls-9" d="M146.05,130.89a61.21,61.21,0,0,0-3.57-9.42c-.1,10.34-5.46,20.71-14.37,25.94l-.68.39c-.84-.47-1.68-.93-2.49-1.45-1.7-2-3.26-4.32-5.66-5.49a4.75,4.75,0,0,0-2.36-.38,29.13,29.13,0,0,1,.86-6.34c14.58-7.08,19.36-21.75,23.3-39.65.21-1.71,4-18,1.21-16.87a4.13,4.13,0,0,0-.86,2.23,46.11,46.11,0,0,1-3.68-6.21c-2.33-5-3.05-10.59-3.39-16.09-.11-.58-.18-2.72-1.18-1.91a9.06,9.06,0,0,0-.87,5.08l-.46.05c-6.15.31-12.2.38-18.26-1.06-5.83-1.52-11.25-4.36-16.61-7.09-.42-.2-1.08-.56-1.49-.17-.64,2,4.77,4,6.22,5,1.5.81,3,1.55,4.6,2.22a21.37,21.37,0,0,1-8.22.76A25.7,25.7,0,0,1,76.36,44.74c-.78-1.19-1.09-2.87-2.26-3.71-1-.13-.86,1-.52,2.17.75,8.08.26,15.16-4.88,21.49a41.51,41.51,0,0,0,.39-13.75c.12-.37-.44-.53-.47-.15s-.19.48-.22.73c-.85,3.64-.79,7.38-1.55,11a35.77,35.77,0,0,1-5.06,13.1,78.49,78.49,0,0,1-4.74,6.72c-.64.8-1.84,2.32-.23,2.82a1,1,0,0,0,.56-.06c.2,1.19.57,2.48.63,3,.58,2.82,1.19,5.65,1.91,8.43,2.48,8.45,4.9,17.07,9.14,24.83a31.7,31.7,0,0,0,14.11,13,1.17,1.17,0,0,0,.06.2,15.71,15.71,0,0,1,1,5.23c-4,.3-6.74,4-8.79,7.1A33,33,0,0,0,71,148.79,54.7,54.7,0,0,1,58.3,125.24c-1.64,3.6-3.52,7-5.15,10.62a24.48,24.48,0,0,1-2.78-14A97.88,97.88,0,0,1,52.43,112,48.5,48.5,0,0,0,52,90.37c-2.2-8.8-1.06-18.4.67-27.3A61.7,61.7,0,0,1,63.31,38.26a3.9,3.9,0,0,1,1.83-1.61,1.44,1.44,0,0,1,1.9,1,49.7,49.7,0,0,1-.39,11.43A24.21,24.21,0,0,0,68.8,36.3c0-.14,0-.32.2-.33s.25.21.11.26c7.69.61,14.89,2.53,20.94,7.31a41.66,41.66,0,0,0-16.61-9.86c-.62-.19-1.4-.58-1.3-1.23.06-.41.45-.67.81-.87a24.41,24.41,0,0,1,14.62-2.71,33.51,33.51,0,0,0-10.85-.58,19.45,19.45,0,0,1,7.75-4.2,51.72,51.72,0,0,1,19.06-2.42,42.37,42.37,0,0,1,10.76,2c8.81,2.91,16.09,9.09,23.14,15.12,6.82,5.83,8.25,15.63,9.33,24.54s.61,17.92.14,26.87c-.34,6.28,2,11.83,3.11,18A34.21,34.21,0,0,1,146.05,130.89Z"/><path class="cls-10" d="M57.9,186.33c2,6,2.8,12.34,4.34,18.47-2.49-.57-5-1.22-7.41-2,0-.89.05-1.78.07-2.67.05-1.9-.65-24.06-1.36-24a.63.63,0,0,1,.3.05C55.15,179.61,56.92,182.83,57.9,186.33Z"/><path class="cls-10" d="M148.15,175.66a156.17,156.17,0,0,0-3.25,27.17c-2.6.69-5.23,1.32-7.88,1.82l-2.34.44a82.56,82.56,0,0,1,4-15.81c1.81-5.3,4.08-10.81,8.23-14.43-1,2.3-1.86,4.69-2.79,7a103.17,103.17,0,0,0-4.93,16.31l-.51,2.46a.25.25,0,0,0,.19.3.26.26,0,0,0,.3-.19c.34-1.61.7-3.2,1-4.81a78.62,78.62,0,0,1,3.64-11.78A53,53,0,0,1,148.15,175.66Z"/></g></g></svg>