<svg xmlns="http://www.w3.org/2000/svg" viewBox="0 0 201.09 210.9"><defs><style>.cls-1{fill:#ffdcd2;}.cls-2{fill:#c93147;}.cls-3{fill:#ffb9a1;}.cls-4{fill:#fff;}.cls-5{fill:#ffe2cc;}.cls-6{fill:#a54921;}.cls-7{fill:#c66a2c;}.cls-8{fill:#9eadac;}.cls-9{fill:#e56161;}.cls-10{fill:#440829;}</style></defs><g id="Layer_2" data-name="Layer 2"><g id="Objects"><path class="cls-1" d="M0,100.55A100.55,100.55,0,1,1,100.55,201.09,100.55,100.55,0,0,1,0,100.55"/><path class="cls-2" d="M142.39,159.63c-3.32,1.37-7,1.18-10.56,1.72l-1,.17a137.09,137.09,0,0,1,14.9,1c-1-.93-2-1.84-3.07-2.69A1.31,1.31,0,0,1,142.39,159.63Z"/><path class="cls-3" d="M100,101.81c2.51-.21,4.35-2.53,6-4.14A13.08,13.08,0,0,1,95,98.76,6.36,6.36,0,0,0,100,101.81Z"/><path class="cls-4" d="M96.07,118.72a20.79,20.79,0,0,1-2.09,0,9.35,9.35,0,0,1-6-2.67,6,6,0,0,1-3.18-.33,4.82,4.82,0,0,0,1.14,2.43c2.94,3.42,7.74,4.38,12,4.66a28.22,28.22,0,0,0,19.62-6.54,10.07,10.07,0,0,0,1.56-4.39l-.09,0a11.71,11.71,0,0,1-3.56.93,52.35,52.35,0,0,1-5.72,2.27.26.26,0,0,1-.31-.18.27.27,0,0,1,.13-.33c1.5-.76,3.1-1.41,4.54-2.25.49-.24.85-.73,1.39-.86a7.29,7.29,0,0,0,2.14-.52,4.41,4.41,0,0,0,1.46-1.22,4.22,4.22,0,0,0-4.3-4,11.34,11.34,0,0,0-4.19,1.13c-7.87,4.77-12.8,2.2-21.07,2.48a5.51,5.51,0,0,0-4.69,4.29l.18,0c1,.35,2.34.07,3.21.79.36.57.25.86.93,1.33,2.16,1.44,5,1,7.4,1.42a.71.71,0,0,1,.66.64C97.29,118.63,96.56,118.78,96.07,118.72Z"/><path class="cls-5" d="M148.42,85.86a52.48,52.48,0,0,0-3.64,4.24,1.55,1.55,0,0,1-.13.17c-.49,3-1.51,6.66-1.62,7.81-.48,2.13-.94,4.29-1.44,6.46a5.27,5.27,0,0,0,.72-.48,10.4,10.4,0,0,0,3.79-5.7c.64-2.87-.19-5.77,2.25-8,.77-.92,4.7-5.24,5.34-2.77a2.29,2.29,0,0,1-.84,1.33l-.38.38c.1,4.66-1.24,9.65-5,12.61-.42.35-.85.75-1.31,1.12a8.4,8.4,0,0,1-2.47,2.37c-.69.35-1.74,1.31-2.49,1-.17.7-.34,1.41-.52,2.11a5.66,5.66,0,0,0,3-.34c7.43-3,12.06-14.09,11.49-21.63C154.57,81.61,150.71,83.35,148.42,85.86Z"/><path class="cls-6" d="M69.74,71.27a18.6,18.6,0,0,1,13.42-1.54C80.73,63.82,72.49,67.4,69.74,71.27Z"/><path class="cls-5" d="M55.76,104.78A9.87,9.87,0,0,1,52.28,102C47.8,100,46,94,46.05,89.37a.44.44,0,0,1,.15-.31c-.32-.26-.64-.5-1-.73s-.58-.6-.24-.86c1.69-.18,3.5,1.35,4.7,2.45,3.91,3.15.44,5.51,2.68,9a23.3,23.3,0,0,0,3.83,4.33c-.56-2.3-1.11-4.73-1.66-7.33,0-.62-.5-2.3-.87-4a29.8,29.8,0,0,0-1.83-2.65c-1.9-2.31-6.77-8.59-9.27-4-1.86,5,3.56,18.52,8.19,21a9.37,9.37,0,0,0,6.53,1.14c-.26-.94-.52-1.9-.77-2.9A.67.67,0,0,1,55.76,104.78Z"/><path class="cls-3" d="M51.49,100.83A6.94,6.94,0,0,1,50.6,97,10.36,10.36,0,0,0,47,89.77C46.78,93.75,48,98.67,51.49,100.83Z"/><path class="cls-6" d="M128.63,71.27c-2.75-3.87-11-7.45-13.42-1.54A18.6,18.6,0,0,1,128.63,71.27Z"/><path class="cls-7" d="M161.2,57.94a16,16,0,0,1-2.4,8.3c0-.21,0-.41,0-.6a11.81,11.81,0,0,0-.71-4.49c-.16-.42-.39-.94-.87-1s-.63.45-.69.78c0,5.19-.35,10.45-2.59,15.26a42.13,42.13,0,0,1-2.19,4.54,1,1,0,0,0-.08.34c-2.4.51-4.87,2.64-6.62,4.95l-.39.52a.45.45,0,0,0-.21-.22,75.45,75.45,0,0,0,.19-9.11c-.1-1.29.52-3.14-.84-4-3.89-2.91-6.87-7-7.48-11.88a21.91,21.91,0,0,0,8.13,2.24,7.34,7.34,0,0,0,1.62-.08.93.93,0,0,0,0-1.86c-4.9-.71-10.07-2-13.13-6.24a23.45,23.45,0,0,1-4.19-9.61c-.84-3-1.56-6.69-4.45-8.48a3.79,3.79,0,0,0-2.78-.38,2.5,2.5,0,0,0-.53.22c-3.43-6.08-10.84-7.82-16.46-3.51-3.74,2.71-5.84,7-8.17,10.84C92.51,51.37,86.3,57,78.46,59a29.49,29.49,0,0,0,4.5-6.2c.27-.72,1.21-1.75,1.15-2.57a13.19,13.19,0,0,0,2.68-7.46.24.24,0,1,0-.46-.12c-1.86,2.38-3,5.25-5,7.6a39.07,39.07,0,0,1-11.46,10c-2.55,1.46-5.16,2.78-7.79,4.07a3,3,0,0,1-.48.27,21.13,21.13,0,0,0,1-4.49c0-.57.35-5.66-.88-3.72-1.08,2.87-1.43,6-2.71,8.81-1.52,3.73-4,7.19-6.1,10.63a108.36,108.36,0,0,0,1,11.42.7.7,0,0,0-.39.26A20.12,20.12,0,0,0,49.17,83a10.11,10.11,0,0,0-2.91-1.58.61.61,0,0,0-.06-.39A37.39,37.39,0,0,1,44,75.44c-1.55-4.92-1.45-10-.83-15.11,0-.35.33-3.11-.43-2.25a13.73,13.73,0,0,0-2.19,6.78c-.27-.79-.52-1.59-.76-2.4A35.43,35.43,0,0,1,48,34.82C62.55,16.37,82.82,3,107.2,7.67c7,1.51,14.32,4.58,19.07,10.2a13.82,13.82,0,0,1,1.52,2.57c.11.21.22.43.34.63-.3.46-.31,1.22.36,1.29,1.7-.32,3.19-1.46,4.9-1.86a15.26,15.26,0,0,1,8.21-.14C156.12,24.25,161.72,44.53,161.2,57.94Z"/><path class="cls-3" d="M147.94,95.9a21.46,21.46,0,0,1-1.14,5.88c2.88-2.74,4.54-7.75,4.71-11.5A14.31,14.31,0,0,0,147.94,95.9Z"/><path class="cls-2" d="M65.4,161.78l-3.61-.51a18.72,18.72,0,0,1-7.07-1.9,1.35,1.35,0,0,1-.35.37,54.35,54.35,0,0,0-5.51,5.32A74.49,74.49,0,0,1,63.54,162Z"/><path class="cls-8" d="M85.81,167.68a9.07,9.07,0,0,1,1.38-2.27c-.52-.64-1.06-1.26-1.61-1.87a6.54,6.54,0,0,0-.7,1.08A39.32,39.32,0,0,0,80,178.09c-.56,3.71-2.42,13.37.07,16.12,1.72.94.86-2.39,1-3.14a45.75,45.75,0,0,1,.45-8.91A57.48,57.48,0,0,1,85.81,167.68Z"/><path class="cls-6" d="M104.41,36.69a20.26,20.26,0,0,0-1.65,2c4.44-2.64,10.31-4,15.12-2C114,32.61,108.69,32.43,104.41,36.69Z"/><path class="cls-9" d="M163.93,193.77c-3.16,1.69-6.38,3.26-9.65,4.74a111.76,111.76,0,0,1-40,9.64c-18.41,1.21-37-.05-54.91-4.73-8.83-2.26-17.76-5.12-25.2-10.56a2.82,2.82,0,0,0,.36-1c.51-1.88,1.07-3.75,1.74-5.57a66.24,66.24,0,0,1,11.41-20,54.31,54.31,0,0,1,6.22-2,66.83,66.83,0,0,1,14.71-2c1.68.31,3.34.67,5,1.11A41,41,0,0,1,82,166.52c-.73,1.55-1.32,3-1.52,3.5-1.65,4.15-6.48,25.49,0,26.11,4.21-.07,2.13-5.32,2.38-8a52.8,52.8,0,0,1,1.94-13,51.87,51.87,0,0,1,2.28-6.74c.07-.35.56-1.19.87-1.95.09.14.19.25.27.39a.5.5,0,0,0,.63.16c.74-.55-.42-1.74-.58-2.42A11.19,11.19,0,0,0,85,160.79a1.1,1.1,0,0,0-.92-.31c-1.08.46-.09,1.42.5,2a9.3,9.3,0,0,0-1.47,2.09c-2.71-2.11-10.43-3.62-12.78-4.25C63,158.43,53,160,50.93,150.55c-.93-4.5,2.94-7.09,5.92-9.67a1.71,1.71,0,0,0,.44-1c.09-1.69.08-3.37.27-5a22.24,22.24,0,0,1,5.63-12.29,27.4,27.4,0,0,0,5.18,6.38A28,28,0,0,0,76.61,134c.08.18.18.35.26.53-.36.73-.64,1.49-1,2.21l-.39.85a1,1,0,0,0-.78.08c-1.16.63-1.52,2.07-1.83,3.26-2.44,11.57,12.64,11.14,19.32,15.7a12,12,0,0,1,1.64,1.63,42.87,42.87,0,0,1,4,6.53,1.29,1.29,0,0,0,.33,1c.89.44,1.18-1,1.54-1.6a16.63,16.63,0,0,1,1.87-3.26,14.88,14.88,0,0,1,2.21-2.27h0c5.09-4.25,12.38-5,18-8.43a15.23,15.23,0,0,0,5.21-5.8c.3-1.22,2.49-4.92.77-5.5a1,1,0,0,0-1.24.52c-.1.34-.21.68-.32,1a14.24,14.24,0,0,0-2.39-6.87,25.26,25.26,0,0,0,7.46-4.92c.54-.63,1-1.27,1.53-1.93a35,35,0,0,0,2.49-3.92c5.46,3.72,7.47,9.41,6.27,16-.37,1.29.78,2.18,1.51,3.08,2.28,2.73,5.2,6.05,4.07,9.9-1.43,5.09-7.22,6.68-11.93,6.83a49.12,49.12,0,0,0-10,1.84c-1.39.44-8.3,2.51-10.29,4.53-.31-.56-.64-1.12-1-1.66a5.83,5.83,0,0,0-.61-.8,4.84,4.84,0,0,0,1.06-1.67.48.48,0,0,0-.33-.48c-2.11-.11-3.36,2.39-4.36,3.94-.33.83-.73,1.51-1,2.43a.57.57,0,0,0,1,.48c.11-.16.21-.31.31-.48l.12.16c3.64,5.28,4.82,11.83,4.83,18.16,0,1.74,0,3.74-.16,5.55s-.46,3.89,1.28,4.9a2.57,2.57,0,0,0,3.08-.67c3.89-4.55,1.27-14.27,0-19.61a42.64,42.64,0,0,0-3.29-8.57l.5-.25c.92-.47,1.84-.93,2.78-1.34a55.3,55.3,0,0,1,7.56-2.62c6.64-.6,13.35.32,20,1,8.19,8.22,13.09,19.21,17.14,30A1,1,0,0,0,163.93,193.77Z"/><path class="cls-8" d="M118.59,192.46c2.25-8.18-2.09-21.17-6.24-28.36a2.09,2.09,0,0,1-.22-.28,6.15,6.15,0,0,0-.75,1c-.2.24-.37.49-.55.74.88.49,1.59,2.14,2,2.81a39.29,39.29,0,0,1,3.73,16.22c.11,2.86,0,5.73-.11,8.58C116.86,194.81,118.3,193.4,118.59,192.46Z"/><path class="cls-5" d="M96.93,135.89c.74.2,1.9,0,2.77.19a5.41,5.41,0,0,1,1.7-.09,63.33,63.33,0,0,0,9.77-1.39c6.58-1.22,13.6-2.81,18.48-7.72,6.91-8.32,8.84-19.4,11.12-29.66.42-1.06.9-5.22,1.7-8.12-.51-2.32.5-8.74.54-9.95s.76-3.38-.48-4.11c-4.75-3.43-8.39-8.52-8.6-14.54a2.93,2.93,0,0,1,0-.78c-9.25-7.19-6.07-21.65-13.12-20.89-.46.24-1.2,0-1.73-.78a22,22,0,0,0-17.83,2.74C99.45,43.56,98,46.54,96,49.19A27.58,27.58,0,0,1,79.14,60.83c-.68.17-1.46.49-2.11.08a.78.78,0,0,1-.37-.78l0-.08h0c.91-1.32,1.72-2.71,2.5-4.12-.58.57-1.15,1.1-1.69,1.59a52.93,52.93,0,0,1-12.7,7.86c-1.4.65-2.81,1.32-4.28,1.84a59.82,59.82,0,0,1-6,9.61c-.18,2.42.73,4.85.86,7.29A48,48,0,0,1,55.66,90c1.13,4.77,2,9.59,3.33,14.31C64.53,128.18,73.31,133.54,96.93,135.89ZM76,90.56c-4.87-1.39-2-8.57,2.36-8.06,1.57.06,2.25,1.72,2.38,3.08C81.13,88.23,78.77,91.18,76,90.56Zm46.45,0c-2.8.62-5.17-2.33-4.73-5,.12-1.36.81-3,2.38-3.08C124.43,82,127.28,89.17,122.41,90.56Zm-9-21.37c.62-3,4-4.6,6.89-4.52,3.89.22,7.51,2.84,9.61,6.06.31.72,1.36,2.24.17,2.61-3.14-1.35-6.26-2.62-9.85-2.54-2-.18-4,.62-6,.63C113.37,71.09,113.33,70,113.43,69.19Zm-21.18,25c.48-.93,1.4-.52,1.53.4.24,3.33,4.1,4.11,6.84,3.67s4.77-1.79,7.1-2.83a.69.69,0,0,1,.48,1.14c-.59.74-1,1.6-1.57,2.36-1.54,2.38-4.17,4.25-7.12,3.86a8.91,8.91,0,0,1-6.57-5.2A3.15,3.15,0,0,1,92.25,94.14ZM91,107.34c1.91,0,3.68.75,5.52,1.16a18.3,18.3,0,0,0,8.31-1c3.21-1,5.8-3.28,9.15-3.74,8-.89,9.47,9.73,4.37,14.14-5.25,5-12.79,7.05-19.91,7-7.16.34-19.46-4.42-15.05-13.42A7.67,7.67,0,0,1,91,107.34ZM68.44,70.73c2.1-3.22,5.72-5.84,9.62-6.06,2.88-.08,6.26,1.47,6.88,4.52.1.79.07,1.9-.8,2.24-2,0-4.07-.81-6-.63-3.59-.08-6.71,1.19-9.85,2.54C67.08,73,68.14,71.45,68.44,70.73Z"/><path class="cls-5" d="M79,148.81c5.51,3.15,13.3,2.89,17.18,8.57a14.94,14.94,0,0,1,2.32,4.28,14.36,14.36,0,0,1,5.46-6c4.46-3.38,10.3-4.1,15.16-6.64a1,1,0,0,1-.38-.56c-.59-2.55-1.43-7.41-.85-11.1-5.66,5.58-12.72,11.15-21,10.94a22.36,22.36,0,0,1-13.62-5.92c-1-1-2.11-2-3.17-3a52.52,52.52,0,0,1-.7,7C79.18,147,79.19,148,79,148.81Z"/><path class="cls-2" d="M120.26,145.78c0,.66.4,1.59.4,2.34.26-.17.53-.34.78-.53a13.93,13.93,0,0,0,3.59-4.41,8.59,8.59,0,0,0,.27-1.32c.29-2.81-.85-5.58-2.3-7.94-.66.27-1.33.53-2,.76a1.73,1.73,0,0,1-.16.37C119.57,138.46,119.76,142.25,120.26,145.78Z"/><path class="cls-2" d="M76.56,137.12c-.23.5-.49,1-.73,1.49-.78,2.33-1.41,5-.24,7.32a11.31,11.31,0,0,0,1.58,1.59c0-.51.09-1,.15-1.55.27-3.27.92-6.79.06-10,0-.09-.09-.19-.13-.28C77,136.18,76.77,136.65,76.56,137.12Z"/><path class="cls-3" d="M87.54,144.58c9.26,5.29,20.17-.22,27.26-6.7.84-.69,1.59-1.41,2.33-2.11-3.25.75-6.54,1.42-9.83,2-2.27.27-4.75.93-7,.57a1.18,1.18,0,0,1-.67.18c-8.32-.62-14.89-1.69-20.18-3.45l.18.55c.87,1.4,1.6,2.89,2.6,4.21A21.38,21.38,0,0,0,87.54,144.58Z"/><path class="cls-10" d="M57.2,109.86h0Z"/><path class="cls-10" d="M57.28,109.84h-.05l.07,0h0Z"/><path class="cls-10" d="M84.14,71.43c.87-.34.9-1.45.8-2.24-.62-3-4-4.6-6.88-4.52-3.9.22-7.52,2.84-9.62,6.06-.3.72-1.36,2.24-.17,2.61,3.14-1.35,6.26-2.62,9.85-2.54C80.07,70.62,82.16,71.42,84.14,71.43Zm-14.4-.16c2.75-3.87,11-7.45,13.42-1.54A18.6,18.6,0,0,0,69.74,71.27Z"/><path class="cls-10" d="M78.32,82.5C74,82,71.09,89.17,76,90.56c2.81.62,5.17-2.33,4.74-5C80.57,84.22,79.89,82.56,78.32,82.5Z"/><path class="cls-10" d="M114.23,71.43c2,0,4.07-.81,6-.63,3.59-.08,6.71,1.19,9.85,2.54,1.19-.37.14-1.89-.17-2.61-2.1-3.22-5.72-5.84-9.61-6.06-2.89-.08-6.27,1.47-6.89,4.52C113.33,70,113.37,71.09,114.23,71.43Zm14.4-.16a18.6,18.6,0,0,0-13.42-1.54C117.64,63.82,125.88,67.4,128.63,71.27Z"/><path class="cls-10" d="M120.06,82.5c-1.57.06-2.26,1.72-2.38,3.08-.44,2.65,1.93,5.6,4.73,5C127.28,89.17,124.43,82,120.06,82.5Z"/><path class="cls-10" d="M99.51,102.74c2.95.39,5.58-1.48,7.12-3.86.56-.76,1-1.62,1.57-2.36a.69.69,0,0,0-.48-1.14c-2.33,1-4.37,2.46-7.1,2.83s-6.6-.34-6.84-3.67c-.13-.92-1-1.33-1.53-.4a3.15,3.15,0,0,0,.69,3.4A8.91,8.91,0,0,0,99.51,102.74Zm6.57-5.07c-1.7,1.61-3.54,3.93-6,4.14a6.36,6.36,0,0,1-5-3A13.08,13.08,0,0,0,106.08,97.67Z"/><path class="cls-10" d="M83.38,111.44c-4.41,9,7.89,13.76,15.05,13.42,7.12,0,14.66-2,19.91-7,5.1-4.41,3.61-15-4.37-14.14-3.35.46-5.94,2.75-9.15,3.74a18.3,18.3,0,0,1-8.31,1c-1.84-.41-3.61-1.14-5.52-1.16A7.67,7.67,0,0,0,83.38,111.44Zm13.2,5.88c-2.42-.41-5.24,0-7.4-1.42-.68-.47-.57-.76-.93-1.33-.87-.72-2.18-.44-3.21-.79l-.18,0a5.51,5.51,0,0,1,4.69-4.29c8.27-.28,13.2,2.29,21.07-2.48a11.34,11.34,0,0,1,4.19-1.13,4.22,4.22,0,0,1,4.3,4,4.41,4.41,0,0,1-1.46,1.22,7.29,7.29,0,0,1-2.14.52c-.54.13-.9.62-1.39.86-1.44.84-3,1.49-4.54,2.25a.27.27,0,0,0-.13.33.26.26,0,0,0,.31.18,52.35,52.35,0,0,0,5.72-2.27A11.71,11.71,0,0,0,119,112l.09,0a10.07,10.07,0,0,1-1.56,4.39A28.22,28.22,0,0,1,98,122.83c-4.29-.28-9.09-1.24-12-4.66a4.82,4.82,0,0,1-1.14-2.43,6,6,0,0,0,3.18.33,9.35,9.35,0,0,0,6,2.67,20.79,20.79,0,0,0,2.09,0c.49.06,1.22-.09,1.17-.76A.71.71,0,0,0,96.58,117.32Z"/><path class="cls-10" d="M165.8,193.23c-.28-2.53-1.73-4.8-2.54-7.19a92.19,92.19,0,0,0-5.08-11,60.71,60.71,0,0,0-6.79-9.8c-2.1-2.32-4.17-5-6.88-6.67,3.41-2,5.83-5.89,5.17-9.9-.86-3.92-3.61-7.29-6.39-10,.92-6.31.35-12.13-5.09-16.27-.44-.32-1.14-1-1.88-1.48a61.16,61.16,0,0,0,3.78-10.35c6.49,1.17,11.64-4.76,14.13-10.1s5.22-12.61,1.73-18a4.54,4.54,0,0,0-2-1.3c.75-1.33,1.43-2.7,2.08-4.08a28.71,28.71,0,0,0,2.59-8.68,19.33,19.33,0,0,0,2.77-3.78c3.72-7.19,2-15.95.16-23.47-3.22-11.08-11.06-23.7-24-23.58a16,16,0,0,0-7.79,2.1,6.51,6.51,0,0,0-.65-1.6c-3.35-5.6-9.62-8.74-15.53-11C95.62.88,75.19,6,61,18.29c-10.58,9.19-22,20.22-23.53,34.9A27.12,27.12,0,0,0,37.72,61a18.87,18.87,0,0,0,2.84,7.53,32,32,0,0,0,4.09,12.65,3,3,0,0,0-.42.06c-9.38,2.31-1.7,18.33,1.54,23.46a11.82,11.82,0,0,0,9.62,5.34,5,5,0,0,0,1.89-.23h0a4.9,4.9,0,0,0,.61-.21,61.45,61.45,0,0,0,4.18,10.92c-1.73,1-3.68,5-4.27,6.07-2,3.85-1.68,8.22-2.27,12.37-2.36,1.77-4.88,3.68-6.18,6.4-1.93,4.35-.18,9.58,3.34,12.58-9.27,8-15.78,18.93-19.53,30.51-.32,1-.62,2-.86,3.05a4,4,0,0,0-.1.74.81.81,0,0,0-.35.5c0,1.38,1.53,2.15,2.47,3,14.44,9.89,42.39,14.6,59.88,15,24.43,1,49.79-2.35,71-15.22a1,1,0,0,0,.22-1.49A.9.9,0,0,0,165.8,193.23Zm-20.06-30.67a137.09,137.09,0,0,0-14.9-1l1-.17c3.51-.54,7.24-.35,10.56-1.72a1.31,1.31,0,0,0,.28.24C143.74,160.72,144.76,161.63,145.74,162.56Zm9.37-76.08c.57,7.54-4.06,18.68-11.49,21.63a5.66,5.66,0,0,1-3,.34c.18-.7.35-1.41.52-2.11.75.35,1.8-.61,2.49-1a8.4,8.4,0,0,0,2.47-2.37c.46-.37.89-.77,1.31-1.12,3.79-3,5.13-8,5-12.61l.38-.38a2.29,2.29,0,0,0,.84-1.33c-.64-2.47-4.57,1.85-5.34,2.77-2.44,2.25-1.61,5.15-2.25,8a10.4,10.4,0,0,1-3.79,5.7,5.27,5.27,0,0,1-.72.48c.5-2.17,1-4.33,1.44-6.46.11-1.15,1.13-4.85,1.62-7.81a1.55,1.55,0,0,0,.13-.17,52.48,52.48,0,0,1,3.64-4.24C150.71,83.35,154.57,81.61,155.11,86.48Zm-8.31,15.3a21.46,21.46,0,0,0,1.14-5.88,14.31,14.31,0,0,1,3.57-5.62C151.34,94,149.68,99,146.8,101.78ZM44,75.44c-1.54-4.92-1.45-10-.82-15.11,0-.35.33-3.1-.43-2.24a13.61,13.61,0,0,0-2.18,6.77c-.28-.79-.53-1.59-.77-2.4A35.44,35.44,0,0,1,48,34.82C62.55,16.37,82.82,3,107.2,7.67c7,1.51,14.33,4.59,19.07,10.2a13.82,13.82,0,0,1,1.52,2.57c.11.2.22.42.34.63-.3.45-.31,1.22.36,1.28,1.7-.31,3.19-1.45,4.9-1.85a15.26,15.26,0,0,1,8.21-.14c14.52,3.9,20.12,24.18,19.61,37.58a16,16,0,0,1-2.42,8.29c0-.2,0-.39,0-.6a11.79,11.79,0,0,0-.71-4.48c-.15-.41-.39-.94-.87-1s-.63.44-.69.77c0,5.2-.35,10.46-2.59,15.26a45,45,0,0,1-2.19,4.53,1.58,1.58,0,0,0-.09.36c-2.58.54-5.22,3-7,5.45a.7.7,0,0,0-.21-.21,77.08,77.08,0,0,0,.18-9.11c-.1-1.29.52-3.14-.84-4-3.89-2.91-6.87-7-7.48-11.89a21.72,21.72,0,0,0,8.13,2.25,7.31,7.31,0,0,0,1.62-.08.93.93,0,0,0,0-1.86c-4.9-.71-10.07-2-13.13-6.24a23.6,23.6,0,0,1-4.2-9.61c-.83-3-1.55-6.69-4.44-8.47a3.68,3.68,0,0,0-2.77-.39,2.61,2.61,0,0,0-.54.21c-3.44-6.07-10.84-7.81-16.46-3.5-3.74,2.71-5.84,7-8.18,10.84C92.51,51.37,86.3,57,78.46,59A29.9,29.9,0,0,0,83,52.77c.27-.72,1.2-1.75,1.14-2.57a13.22,13.22,0,0,0,2.68-7.46.24.24,0,1,0-.47-.12c-1.85,2.38-3,5.25-5,7.6a38.93,38.93,0,0,1-11.46,10c-2.55,1.46-5.16,2.77-7.79,4.08a5.29,5.29,0,0,1-.49.26,19.32,19.32,0,0,0,1-4.49c0-.58.36-5.66-.88-3.72-1.07,2.88-1.41,6-2.7,8.82-1.52,3.72-4,7.18-6.09,10.62a105.68,105.68,0,0,0,1,11.42.67.67,0,0,0-.39.27c-1.92-2.71-4.78-5.26-7.24-6a.69.69,0,0,0-.06-.39A37.44,37.44,0,0,1,44,75.44Zm73.93-38.8c-4.81-2-10.68-.64-15.12,2a20.26,20.26,0,0,1,1.65-2C108.69,32.43,114,32.61,117.88,36.64ZM50.76,106.32c-4.63-2.5-10-16-8.19-21,2.5-4.64,7.37,1.64,9.27,4a29.8,29.8,0,0,1,1.83,2.65c.37,1.73.84,3.41.87,4,.55,2.6,1.1,5,1.66,7.33a23.3,23.3,0,0,1-3.83-4.33c-2.24-3.5,1.23-5.86-2.68-9-1.2-1.1-3-2.63-4.7-2.45-.34.26,0,.67.24.86s.65.47,1,.73a.44.44,0,0,0-.15.31C46,94,47.8,100,52.28,102a9.87,9.87,0,0,0,3.48,2.75.67.67,0,0,0,.76-.22c.25,1,.51,2,.77,2.9A9.37,9.37,0,0,1,50.76,106.32Zm.73-5.49C48,98.67,46.78,93.75,47,89.77A10.36,10.36,0,0,1,50.6,97,6.94,6.94,0,0,0,51.49,100.83Zm7.5,3.46c-1.32-4.72-2.2-9.54-3.33-14.31a48,48,0,0,0-.27-5.86c-.13-2.44-1-4.87-.86-7.29a59.82,59.82,0,0,0,6-9.61C62,66.7,63.39,66,64.79,65.38a52.93,52.93,0,0,0,12.7-7.86c.54-.49,1.11-1,1.69-1.59-.78,1.41-1.59,2.8-2.5,4.12h0l0,.08a.78.78,0,0,0,.37.78c.65.41,1.43.09,2.11-.08A27.58,27.58,0,0,0,96,49.19c2-2.65,3.43-5.63,5.22-8.4a22,22,0,0,1,17.83-2.74c.53.8,1.27,1,1.73.78,7-.76,3.87,13.7,13.12,20.89a2.93,2.93,0,0,0,0,.78c.21,6,3.85,11.11,8.6,14.54,1.24.73.49,2.88.48,4.11s-1,7.63-.54,9.95c-.8,2.9-1.28,7.06-1.7,8.12-2.28,10.26-4.21,21.34-11.12,29.66-4.88,4.91-11.9,6.5-18.48,7.72A63.33,63.33,0,0,1,101.4,136a5.41,5.41,0,0,0-1.7.09c-.87-.17-2,0-2.77-.19C73.31,133.54,64.53,128.18,59,104.29Zm64,29.63c1.45,2.36,2.59,5.13,2.3,7.94a8.59,8.59,0,0,1-.27,1.32,13.93,13.93,0,0,1-3.59,4.41c-.25.19-.52.36-.78.53,0-.75-.42-1.68-.4-2.34-.5-3.53-.69-7.32.57-10.73a1.73,1.73,0,0,0,.16-.37C121.67,134.45,122.34,134.19,123,133.92Zm-42.92,5.46c1.06,1,2.2,2,3.17,3a22.36,22.36,0,0,0,13.62,5.92c8.3.21,15.36-5.36,21-10.94-.58,3.69.26,8.55.85,11.1a1,1,0,0,0,.38.56c-4.86,2.54-10.7,3.26-15.16,6.64a14.36,14.36,0,0,0-5.46,6,14.94,14.94,0,0,0-2.32-4.28C92.3,151.7,84.51,152,79,148.81c.19-.82.18-1.86.38-2.43A52.52,52.52,0,0,0,80.08,139.38Zm-.66-4.3c5.29,1.76,11.86,2.83,20.18,3.45a1.18,1.18,0,0,0,.67-.18c2.28.36,4.76-.3,7-.57,3.29-.59,6.58-1.26,9.83-2-.74.7-1.49,1.42-2.33,2.11-7.09,6.48-18,12-27.26,6.7a21.38,21.38,0,0,1-5.34-4.74c-1-1.32-1.73-2.81-2.6-4.21ZM77.32,146c-.06.55-.1,1-.15,1.55a11.31,11.31,0,0,1-1.58-1.59c-1.17-2.34-.54-5,.24-7.32.24-.5.5-1,.73-1.49s.45-.94.69-1.4c0,.09.08.19.13.28C78.24,139.18,77.59,142.7,77.32,146ZM54.37,159.74a1.35,1.35,0,0,0,.35-.37,18.72,18.72,0,0,0,7.07,1.9l3.61.51-1.86.18a74.49,74.49,0,0,0-14.68,3.1A54.35,54.35,0,0,1,54.37,159.74Zm99.91,38.77a112,112,0,0,1-40,9.64c-18.4,1.21-37-.05-54.9-4.73-8.83-2.25-17.76-5.12-25.2-10.55a2.71,2.71,0,0,0,.35-1c.51-1.88,1.08-3.74,1.75-5.57a66.24,66.24,0,0,1,11.41-20,54.31,54.31,0,0,1,6.22-2,67.43,67.43,0,0,1,14.71-2c1.68.31,3.36.67,5,1.12h0A41.06,41.06,0,0,1,82,166.52c-.74,1.55-1.34,3-1.54,3.5-1.64,4.15-6.47,25.49,0,26.12,4.21-.09,2.13-5.33,2.39-8a53.09,53.09,0,0,1,1.93-13,51.6,51.6,0,0,1,2.28-6.72c.07-.36.57-1.2.87-1.95.09.12.19.25.27.38a.5.5,0,0,0,.63.16c.73-.55-.41-1.74-.58-2.42A11.14,11.14,0,0,0,85,160.8a1.11,1.11,0,0,0-.94-.32c-1.07.46-.08,1.42.51,2a9.07,9.07,0,0,0-1.47,2.09c-2.71-2.11-10.43-3.62-12.77-4.25C63,158.44,53,160,50.93,150.55c-.93-4.5,2.94-7.09,5.92-9.67a1.7,1.7,0,0,0,.45-1c.08-1.68.08-3.36.26-5a22.24,22.24,0,0,1,5.63-12.28A26.83,26.83,0,0,0,76.61,134c.09.18.18.35.26.53-.36.73-.64,1.5-1,2.21-.14.28-.27.57-.41.85a1,1,0,0,0-.77.08c-1.16.63-1.52,2.07-1.83,3.26-2.44,11.56,12.63,11.14,19.32,15.71,2.63,2.1,4,5.29,5.69,8.15a1.27,1.27,0,0,0,.34.94c.88.45,1.17-1,1.53-1.59a16.63,16.63,0,0,1,1.87-3.26c5-6.35,13.72-6.71,20.2-10.69a15.31,15.31,0,0,0,5.2-5.81c.31-1.21,2.5-4.93.78-5.5a1,1,0,0,0-1.24.52c-.1.34-.21.68-.32,1a14.41,14.41,0,0,0-2.38-6.87,24.77,24.77,0,0,0,7.45-4.92,34.5,34.5,0,0,0,4-5.84c5.45,3.72,7.46,9.41,6.26,16-.37,1.29.79,2.18,1.51,3.08,2.28,2.74,5.2,6.05,4.07,9.9-1.43,5.09-7.22,6.68-11.94,6.83a49.13,49.13,0,0,0-10,1.83c-1.38.45-8.3,2.52-10.29,4.54-.32-.56-.64-1.12-1-1.66a6.6,6.6,0,0,0-.61-.81,4.55,4.55,0,0,0,1.06-1.66.49.49,0,0,0-.32-.48c-2.12-.11-3.37,2.39-4.37,3.94-.33.83-.73,1.52-1,2.43a.57.57,0,0,0,1,.48l.31-.47.12.15c3.63,5.28,4.81,11.82,4.83,18.16,0,1.74,0,3.74-.16,5.55s-.46,3.89,1.28,4.9a2.57,2.57,0,0,0,3.08-.67c3.89-4.54,1.27-14.27,0-19.61a43,43,0,0,0-3.3-8.58c.18-.07.35-.16.51-.24.91-.47,1.83-.93,2.78-1.34a55.77,55.77,0,0,1,7.56-2.62c6.64-.6,13.35.32,20,1,8.19,8.22,13.09,19.21,17.14,30a1,1,0,0,0,.11.26Q159.19,196.29,154.28,198.51Zm-73.21-7.44c-.17.75.69,4.08-1,3.14-2.49-2.75-.63-12.41-.07-16.12a39.32,39.32,0,0,1,4.91-13.47,6.54,6.54,0,0,1,.7-1.08c.55.61,1.09,1.23,1.61,1.87a9.07,9.07,0,0,0-1.38,2.27,57.48,57.48,0,0,0-4.29,14.48A45.75,45.75,0,0,0,81.07,191.07Zm35.54-6.49a39.29,39.29,0,0,0-3.73-16.22c-.46-.67-1.17-2.32-2-2.81.18-.25.35-.5.55-.74a6.15,6.15,0,0,1,.75-1,2.09,2.09,0,0,0,.22.28c4.15,7.19,8.49,20.18,6.24,28.36-.29.94-1.73,2.35-2.09.7C116.65,190.31,116.72,187.44,116.61,184.58Z"/><polygon class="cls-10" points="57.28 109.84 57.28 109.83 57.29 109.83 57.28 109.83 57.28 109.84"/><path class="cls-6" d="M155.17,56.16,150,51.25c2.24,5,1.68,10.85.9,16.32A54.52,54.52,0,0,1,148.05,80a47.54,47.54,0,0,1-3,6l-.39.52a.45.45,0,0,0-.21-.22,75.45,75.45,0,0,0,.19-9.11c-.1-1.29.52-3.14-.84-4-3.89-2.91-6.87-7-7.48-11.88a21.91,21.91,0,0,0,8.13,2.24,7.34,7.34,0,0,0,1.62-.08.93.93,0,0,0,0-1.86c-4.9-.71-10.07-2-13.13-6.24a23.45,23.45,0,0,1-4.19-9.61c-.84-3-1.56-6.69-4.45-8.48a3.79,3.79,0,0,0-2.78-.38,2.5,2.5,0,0,0-.53.22c-3.43-6.08-10.84-7.82-16.46-3.51-3.74,2.71-5.84,7-8.17,10.84C92.51,51.37,86.3,57,78.46,59a29.49,29.49,0,0,0,4.5-6.2c.27-.72,1.21-1.75,1.15-2.57a13.19,13.19,0,0,0,2.68-7.46.24.24,0,1,0-.46-.12c-1.86,2.38-3,5.25-5,7.6a39.07,39.07,0,0,1-11.46,10c-2.55,1.46-5.16,2.78-7.79,4.07a3,3,0,0,1-.48.27,21.13,21.13,0,0,0,1-4.49c0-.57.35-5.66-.88-3.72-1.08,2.87-1.43,6-2.71,8.81-1.52,3.73-4,7.19-6.1,10.63a108.36,108.36,0,0,0,1,11.42.7.7,0,0,0-.39.26A20.12,20.12,0,0,0,49.17,83a58.61,58.61,0,0,1-.67-15.64A38.64,38.64,0,0,1,55.31,48.7l-7.89,7.19a33.17,33.17,0,0,1,5-12.25C59,33.17,68,24,79,18.48s24.24-7.18,35.94-3.23a20.72,20.72,0,0,1,5.38,2.59c2.74,1.94,4.67,4.82,6.39,7.71,4.46-2,9.26-.38,13.5,2.07A30.93,30.93,0,0,1,155.17,56.16Z"/><path class="cls-2" d="M93.8,158.29a140.57,140.57,0,0,1-18.26-4.92c-2.47-.84-5-1.81-6.85-3.65a12.68,12.68,0,0,1-3.29-7,19.71,19.71,0,0,1,3-13.77A28,28,0,0,0,76.61,134c.08.18.18.35.26.53-.36.73-.64,1.49-1,2.21l-.39.85a1,1,0,0,0-.78.08c-1.16.63-1.52,2.07-1.83,3.26-2.44,11.57,12.64,11.14,19.32,15.7A12,12,0,0,1,93.8,158.29Z"/><path class="cls-2" d="M136.72,138.63c-.57,5.26-4.43,9.71-9,12.37s-9.83,3.82-15,4.94c-3,.67-6,1.95-8.89,2.7,5.09-4.25,12.38-5,18-8.43a15.23,15.23,0,0,0,5.21-5.8c.3-1.22,2.49-4.92.77-5.5a1,1,0,0,0-1.24.52c-.1.34-.21.68-.32,1a14.24,14.24,0,0,0-2.39-6.87,25.26,25.26,0,0,0,7.46-4.92c.54-.63,1-1.27,1.53-1.93C135.44,130.22,137.18,134.36,136.72,138.63Z"/></g></g></svg>